<svg xmlns="http://www.w3.org/2000/svg" version="1.1" xmlns:xlink="http://www.w3.org/1999/xlink" xmlns:svgjs="http://svgjs.dev/svgjs" width="1500" height="321" viewBox="0 0 1500 321"><g transform="matrix(1,0,0,1,-0.9090909090909918,-0.23533921175129535)"><svg viewBox="0 0 396 85" data-background-color="#14293a" preserveAspectRatio="xMidYMid meet" height="321" width="1500" xmlns="http://www.w3.org/2000/svg" xmlns:xlink="http://www.w3.org/1999/xlink"><g id="tight-bounds" transform="matrix(1,0,0,1,0.2400000000000091,0.06231723675657008)"><svg viewBox="0 0 395.52 84.87536552648686" height="84.87536552648686" width="395.52"><g><svg viewBox="0 0 532.0517354947997 114.17396219944082" height="84.87536552648686" width="395.52"><g transform="matrix(1,0,0,1,136.53173549479965,15.7794694501398)"><svg viewBox="0 0 395.52 82.61502329916122" height="82.61502329916122" width="395.52"><g id="textblocktransform"><svg viewBox="0 0 395.52 82.61502329916122" height="82.61502329916122" width="395.52" id="textblock"><g><svg viewBox="0 0 395.52 82.61502329916122" height="82.61502329916122" width="395.52"><g transform="matrix(1,0,0,1,0,0)"><svg width="395.52" viewBox="2.34 -35.21 209.56 43.78" height="82.61502329916122" data-palette-color="#e9e4de"><path d="M3.61-22.14L3.61-22.14 6.93-22.14Q7.76-22.14 7.91-21.26L7.91-21.26Q7.96-21.07 8.01-20.48 8.06-19.9 8.14-19.38 8.23-18.87 8.37-18.87L8.37-18.87Q8.5-18.87 8.59-18.98 8.69-19.09 8.74-19.17L8.74-19.17Q10.35-21.09 12.44-21.91 14.53-22.73 16.99-22.73L16.99-22.73Q18.99-22.73 20.89-22 22.78-21.26 23.68-19.31L23.68-19.31Q23.73-19.24 23.78-19.12 23.83-18.99 23.95-18.99L23.95-18.99Q24.05-18.99 24.12-19.08 24.19-19.17 24.24-19.21L24.24-19.21Q25.76-20.87 27.76-21.79 29.76-22.71 32.01-22.71L32.01-22.71Q34.99-22.71 37.15-21.06 39.31-19.41 39.31-16.21L39.31-16.21Q39.31-13.65 39.36-11.07 39.4-8.5 39.45-5.93L39.45-5.93Q39.5-4.71 39.56-3.48 39.62-2.25 39.62-1.03L39.62-1.03Q39.62 0 38.62 0L38.62 0 34.81 0Q34.28 0 34.07-0.24 33.86-0.49 33.81-0.98L33.81-0.98Q33.72-2 33.74-3.06 33.76-4.13 33.72-5.15L33.72-5.15Q33.69-7.35 33.65-9.55 33.62-11.74 33.62-13.94L33.62-13.94Q33.62-15.65 32.8-16.61 31.98-17.58 30.22-17.58L30.22-17.58Q28.2-17.58 26.78-16.33 25.37-15.09 24.62-13.24 23.88-11.4 23.88-9.62L23.88-9.62Q23.88-7.47 23.9-5.32 23.93-3.17 23.93-1L23.93-1Q23.93 0 22.92 0L22.92 0 19.07 0Q18.07 0 18.07-1L18.07-1Q18.07-4.25 18.12-7.47 18.16-10.69 18.12-13.94L18.12-13.94Q18.09-15.58 17.3-16.58 16.5-17.58 14.77-17.58L14.77-17.58Q12.7-17.58 11.28-16.35 9.86-15.11 9.13-13.26 8.4-11.4 8.35-9.57L8.35-9.57Q8.33-8.08 8.3-6.59 8.28-5.1 8.23-3.59L8.23-3.59Q8.23-2.95 8.24-2.28 8.25-1.61 8.18-0.98L8.18-0.98Q8.13-0.49 7.92-0.24 7.71 0 7.18 0L7.18 0 3.34 0Q2.34 0 2.34-1.05L2.34-1.05Q2.34-2.32 2.4-3.58 2.47-4.83 2.49-6.1L2.49-6.1Q2.64-11.45 2.64-16.77L2.64-16.77Q2.64-17.77 2.59-18.97 2.54-20.17 2.61-21.14L2.61-21.14Q2.69-22.14 3.61-22.14ZM53 0.46L53 0.46Q49.83 0.46 47.68-1.05 45.53-2.56 44.44-5.07 43.36-7.57 43.36-10.5L43.36-10.5 43.36-10.89Q43.41-13.96 44.64-16.67 45.87-19.38 48.22-21.06 50.56-22.73 53.88-22.73L53.88-22.73Q55.93-22.73 57.7-21.96 59.47-21.19 61.01-19.87L61.01-19.87Q61.18-19.7 61.3-19.7L61.3-19.7Q61.59-19.7 61.58-20.31 61.57-20.92 61.75-21.53 61.94-22.14 62.72-22.14L62.72-22.14 66.16-22.14Q67.16-22.14 67.16-21.14L67.16-21.14Q67.16-20.09 67.15-19.04 67.14-17.99 67.14-16.94L67.14-16.94Q67.14-14.26 67.17-11.55 67.21-8.84 67.23-6.15L67.23-6.15Q67.26-4.88 67.29-3.6 67.33-2.32 67.33-1.03L67.33-1.03Q67.33 0 66.33 0L66.33 0 62.5 0Q61.84 0 61.64-0.43 61.45-0.85 61.47-1.44 61.5-2.03 61.47-2.49L61.47-2.49Q61.47-2.56 61.45-2.73 61.42-2.91 61.3-2.91L61.3-2.91Q61.2-2.91 61.12-2.83 61.03-2.76 60.96-2.71L60.96-2.71Q59.25-1.27 57.27-0.4 55.3 0.46 53 0.46ZM55.49-4.74L55.49-4.74Q57.22-4.74 58.7-5.46 60.18-6.18 61.01-7.74L61.01-7.74Q61.06-7.84 61.24-8.24 61.42-8.64 61.42-8.74L61.42-8.74Q61.42-9.59 61.41-10.45 61.4-11.3 61.4-12.13L61.4-12.13Q61.4-12.52 61.42-13 61.45-13.48 61.4-13.84L61.4-13.84Q61.37-14.01 61.22-14.36 61.06-14.7 60.98-14.84L60.98-14.84Q60.13-16.38 58.57-17.14 57-17.9 55.3-17.9L55.3-17.9Q53.49-17.9 52.12-16.99 50.75-16.09 49.99-14.61 49.22-13.13 49.22-11.38L49.22-11.38Q49.22-9.62 50.02-8.11 50.83-6.59 52.26-5.66 53.68-4.74 55.49-4.74ZM82.08 8.57L82.08 8.57Q76.73 8.57 73.16 4.76L73.16 4.76Q73.04 4.61 72.94 4.47 72.85 4.32 72.85 4.13L72.85 4.13Q72.85 3.88 73.22 3.34 73.6 2.81 74.06 2.26 74.51 1.71 74.68 1.51L74.68 1.51Q74.85 1.34 75.02 1.21 75.19 1.07 75.43 1.07L75.43 1.07Q75.63 1.07 75.79 1.15 75.95 1.22 76.09 1.32L76.09 1.32Q77.39 2.08 78.69 2.48 80 2.88 81.51 2.88L81.51 2.88Q82.88 2.88 84.25 2.51 85.62 2.15 86.54 1.23 87.47 0.32 87.47-1.32L87.47-1.32Q87.47-1.44 87.48-1.93 87.5-2.42 87.35-2.42L87.35-2.42Q87.25-2.42 87.17-2.32 87.08-2.22 87.03-2.17L87.03-2.17Q84.52 0.44 80.85 0.44L80.85 0.44Q77.83 0.44 75.63-1.17 73.43-2.78 72.25-5.33 71.06-7.89 71.06-10.69L71.06-10.69 71.06-11.18Q71.06-13.21 71.75-15.23 72.43-17.26 73.71-18.97 75-20.68 76.79-21.7 78.58-22.73 80.78-22.73L80.78-22.73Q82.51-22.73 84.13-22.27 85.74-21.8 87.08-20.68L87.08-20.68Q87.23-20.53 87.4-20.53L87.4-20.53Q87.64-20.53 87.67-20.94 87.69-21.34 87.84-21.74 87.98-22.14 88.54-22.14L88.54-22.14 92.18-22.14Q93.18-22.14 93.18-21.14L93.18-21.14Q93.18-19.95 93.17-18.73 93.16-17.5 93.16-16.28L93.16-16.28Q93.16-12.6 93.24-8.91 93.33-5.22 93.33-1.51L93.33-1.51Q93.33 1.56 91.73 3.83 90.13 6.1 87.57 7.34 85 8.57 82.08 8.57ZM82.47-4.74L82.47-4.74Q84.32-4.74 85.57-5.91 86.81-7.08 87.42-8.72L87.42-8.72 87.42-13.82Q87.42-13.92 87.25-14.32 87.08-14.72 87.03-14.79L87.03-14.79Q86.3-16.24 85.03-17.07 83.76-17.9 82.15-17.9L82.15-17.9Q80.37-17.9 79.19-16.98 78.02-16.06 77.45-14.62 76.87-13.18 76.87-11.57L76.87-11.57Q76.87-9.99 77.53-8.4 78.19-6.81 79.44-5.77 80.68-4.74 82.47-4.74ZM97.89-30.47L97.89-30.47Q97.89-31.81 98.89-32.78 99.89-33.74 101.24-33.74L101.24-33.74Q102.6-33.74 103.64-32.75 104.68-31.76 104.68-30.37L104.68-30.37Q104.68-29.03 103.69-28.04 102.7-27.05 101.34-27.05L101.34-27.05Q99.94-27.05 98.92-28.06 97.89-29.08 97.89-30.47ZM98.26-15.75L98.26-15.75 98.26-21.14Q98.26-22.14 99.26-22.14L99.26-22.14 103.02-22.14Q104.02-22.14 104.02-21.14L104.02-21.14Q104.02-16.11 104.05-11.07 104.07-6.03 104.07-1L104.07-1Q104.07 0 103.07 0L103.07 0 99.21 0Q98.21 0 98.21-1L98.21-1Q98.21-4.69 98.23-8.37 98.26-12.06 98.26-15.75ZM113.81 0L109.98 0Q108.97 0 108.97-1.03L108.97-1.03Q108.97-2.37 109.01-3.7 109.05-5.03 109.07-6.37L109.07-6.37Q109.12-9.18 109.15-11.99 109.17-14.79 109.17-17.6L109.17-17.6Q109.17-20.41 109.15-23.22 109.12-26.03 109.07-28.83L109.07-28.83Q109.05-30.18 109.01-31.51 108.97-32.84 108.97-34.18L108.97-34.18Q108.97-35.21 109.98-35.21L109.98-35.21 113.81-35.21Q114.78-35.21 114.81-34.2L114.81-34.2Q114.88-32.79 114.87-31.36 114.86-29.93 114.86-28.52L114.86-28.52Q114.88-25.54 114.89-22.55 114.91-19.56 114.91-16.58L114.91-16.58 114.91-12.77Q114.91-12.48 115.13-12.48L115.13-12.48Q115.22-12.48 115.27-12.5L115.27-12.5Q117.71-13.18 120-14.22 122.28-15.26 124.01-16.97 125.75-18.68 126.48-21.29L126.48-21.29Q126.6-21.7 126.82-21.94 127.04-22.17 127.5-22.17L127.5-22.17 131.9-22.17Q132.31-22.17 132.61-22 132.9-21.83 132.9-21.36L132.9-21.36Q132.9-21.26 132.85-21.02L132.85-21.02Q132.05-17.72 130.01-15.5 127.97-13.28 125.21-11.5L125.21-11.5Q125.04-11.38 125.04-11.25L125.04-11.25Q125.04-11.18 125.71-10.28 126.38-9.38 127.38-8.06 128.38-6.74 129.43-5.37 130.48-4 131.29-2.97 132.09-1.93 132.31-1.61L132.31-1.61Q132.46-1.42 132.62-1.16 132.78-0.9 132.78-0.63L132.78-0.63Q132.78-0.17 132.3-0.09 131.83 0 131.51 0L131.51 0 127.31 0Q126.89 0 126.55-0.37L126.55-0.37Q126.09-0.85 125.65-1.4 125.21-1.95 124.77-2.49L124.77-2.49Q123.5-4 122.24-5.55 120.99-7.1 119.69-8.59L119.69-8.59Q119.62-8.72 119.47-8.72L119.47-8.72Q119.4-8.72 119.35-8.69L119.35-8.69Q118.3-8.3 117.23-7.98 116.15-7.67 115.1-7.28L115.1-7.28Q114.88-7.2 114.88-6.98L114.88-6.98 114.81-1Q114.81 0 113.81 0L113.81 0ZM158.26 0L154.92 0Q154.06 0 153.92-0.88L153.92-0.88Q153.84-1.37 153.78-1.87 153.72-2.37 153.67-2.86L153.67-2.86Q153.67-2.93 153.63-3.11 153.58-3.3 153.45-3.3L153.45-3.3Q153.36-3.3 153.25-3.19 153.14-3.08 153.09-3L153.09-3Q151.48-1.15 149.17-0.34 146.86 0.46 144.45 0.46L144.45 0.46Q142.47 0.46 140.62-0.23 138.78-0.93 137.6-2.37 136.41-3.81 136.41-6.03L136.41-6.03Q136.41-8.86 136.45-11.71 136.49-14.55 136.49-17.36L136.49-17.36 136.49-21.14Q136.49-22.14 137.49-22.14L137.49-22.14 141.25-22.14Q142.25-22.14 142.25-21.14L142.25-21.14 142.25-17.31Q142.25-15.01 142.22-12.7 142.2-10.38 142.22-8.06L142.22-8.06Q142.27-6.13 143.48-5.33 144.69-4.54 146.45-4.54L146.45-4.54Q148.64-4.54 150.18-5.71 151.72-6.88 152.54-8.73 153.36-10.57 153.36-12.57L153.36-12.57 153.36-21.14Q153.36-22.14 154.36-22.14L154.36-22.14 158.09-22.14Q159.09-22.14 159.09-21.14L159.09-21.14Q159.09-20.09 159.08-19.04 159.07-17.99 159.07-16.94L159.07-16.94Q159.07-14.26 159.11-11.55 159.14-8.84 159.17-6.15L159.17-6.15Q159.19-4.88 159.23-3.6 159.26-2.32 159.26-1.03L159.26-1.03Q159.26 0 158.26 0L158.26 0ZM187.88-11.01L187.88-11.01Q187.88-7.86 186.56-5.25 185.24-2.64 182.82-1.09 180.4 0.46 177.11 0.46L177.11 0.46Q173.13 0.46 170.3-2.05L170.3-2.05Q170.22-2.1 170.14-2.19 170.05-2.27 169.93-2.27L169.93-2.27Q169.81-2.27 169.78-2.09 169.76-1.9 169.76-1.83L169.76-1.83Q169.76-1.25 169.71-0.62 169.66 0 168.81 0L168.81 0 164.9 0Q163.9 0 163.9-1.03L163.9-1.03Q163.9-2.37 163.94-3.7 163.97-5.03 164-6.37L164-6.37Q164.05-9.18 164.07-11.99 164.1-14.79 164.1-17.6L164.1-17.6Q164.1-20.41 164.07-23.22 164.05-26.03 164-28.83L164-28.83Q163.97-30.18 163.94-31.51 163.9-32.84 163.9-34.18L163.9-34.18Q163.9-35.21 164.9-35.21L164.9-35.21 168.69-35.21Q169.27-35.21 169.46-34.96 169.64-34.72 169.69-34.2L169.69-34.2Q169.78-33.42 169.75-32.08 169.71-30.74 169.74-29.86L169.74-29.86Q169.76-27.56 169.77-25.29 169.78-23.02 169.78-20.73L169.78-20.73Q169.78-20.63 169.81-20.48 169.83-20.34 169.98-20.34L169.98-20.34Q170.1-20.34 170.3-20.48L170.3-20.48Q173.47-22.73 177.35-22.73L177.35-22.73Q180.82-22.73 183.15-21.15 185.48-19.58 186.68-16.92 187.88-14.26 187.88-11.01ZM175.96-4.93L175.96-4.93Q177.77-4.93 179.14-5.83 180.5-6.74 181.27-8.23 182.04-9.72 182.04-11.45L182.04-11.45Q182.04-13.21 181.28-14.71 180.53-16.21 179.17-17.14 177.82-18.07 175.96-18.07L175.96-18.07Q174.3-18.07 172.78-17.35 171.25-16.63 170.37-15.16L170.37-15.16Q170.27-14.99 170.08-14.6 169.88-14.21 169.83-14.01L169.83-14.01Q169.78-13.72 169.81-13.33 169.83-12.94 169.83-12.62L169.83-12.62Q169.83-11.69 169.83-10.75 169.83-9.81 169.81-8.89L169.81-8.89Q170.59-6.88 172.23-5.91 173.86-4.93 175.96-4.93ZM202.5 0.59L202.5 0.59Q198.93 0.59 196.28-0.83 193.63-2.25 192.17-4.86 190.71-7.47 190.71-11.06L190.71-11.06Q190.71-14.4 192.1-17.07 193.49-19.73 196.03-21.28 198.57-22.83 201.98-22.83L201.98-22.83Q206.21-22.83 208.61-20.46 211.02-18.09 211.87-14.16L211.87-14.16Q211.9-14.09 211.9-13.92L211.9-13.92Q211.9-13.55 211.71-13.37 211.53-13.18 211.24-13.06L211.24-13.06Q210.41-12.67 209.48-12.38 208.55-12.08 207.67-11.74L207.67-11.74Q205.11-10.79 202.52-9.88 199.93-8.96 197.39-7.93L197.39-7.93Q197.2-7.84 197.2-7.69L197.2-7.69Q197.2-7.62 197.25-7.52L197.25-7.52Q198.22-5.76 199.93-4.91 201.64-4.05 203.6-4.05L203.6-4.05Q205.13-4.05 206.46-4.54 207.8-5.03 209.09-5.76L209.09-5.76Q209.26-5.86 209.43-5.93 209.6-6.01 209.77-6.01L209.77-6.01Q210.11-6.01 210.3-5.8 210.48-5.59 210.6-5.32L210.6-5.32Q210.7-5.15 210.98-4.55 211.26-3.96 211.52-3.36 211.77-2.76 211.77-2.59L211.77-2.59Q211.77-2.32 211.63-2.15 211.48-1.98 211.29-1.83L211.29-1.83Q209.55-0.63 207.07-0.02 204.6 0.59 202.5 0.59ZM196.37-11.3L196.37-11.3Q198.84-12.16 201.3-13.01 203.77-13.87 206.21-14.72L206.21-14.72Q205.6-16.06 204.51-17.07 203.42-18.07 201.84-18.07L201.84-18.07Q199.98-18.07 198.76-17.07 197.54-16.06 196.96-14.51 196.37-12.96 196.37-11.3Z" opacity="1" transform="matrix(1,0,0,1,0,0)" fill="#e9e4de" class="wordmark-text-0" data-fill-palette-color="primary" id="text-0"></path></svg></g></svg></g></svg></g></svg></g><g><svg viewBox="0 0 117.02831125442685 114.17396219944082" height="114.17396219944082" width="117.02831125442685"><g><svg xmlns="http://www.w3.org/2000/svg" xmlns:xlink="http://www.w3.org/1999/xlink" version="1.1" x="0" y="0" viewBox="9 10 82 80" style="enable-background:new 0 0 100 100;" xml:space="preserve" height="114.17396219944082" width="117.02831125442685" class="icon-icon-0" data-fill-palette-color="accent" id="icon-0"><g fill="#39cccc" data-fill-palette-color="accent"><path d="M81 10C75.5 10 71 14.5 71 20 71 21.4 71.3 22.6 71.8 23.8L54.5 41.1C53.1 40.4 51.6 40 50 40 44.5 40 40 44.5 40 50S44.5 60 50 60 60 55.5 60 50C60 47.6 59.1 45.3 57.7 43.6L74.1 27.2C75.9 28.9 78.3 30 81 30 86.5 30 91 25.5 91 20S86.5 10 81 10M50 56C46.7 56 44 53.3 44 50S46.7 44 50 44 56 46.7 56 50 53.3 56 50 56M81 26C77.7 26 75 23.3 75 20S77.7 14 81 14 87 16.7 87 20 84.3 26 81 26" fill="#39cccc" data-fill-palette-color="accent"></path><path d="M50 30C55.5 30 60 25.5 60 20S55.5 10 50 10 40 14.5 40 20 44.5 30 50 30M50 14C53.3 14 56 16.7 56 20S53.3 26 50 26 44 23.3 44 20 46.7 14 50 14" fill="#39cccc" data-fill-palette-color="accent"></path><path d="M81 40C75.5 40 71 44.5 71 50S75.5 60 81 60 91 55.5 91 50 86.5 40 81 40M81 56C77.7 56 75 53.3 75 50S77.7 44 81 44 87 46.7 87 50 84.3 56 81 56" fill="#39cccc" data-fill-palette-color="accent"></path><path d="M19 70C13.5 70 9 74.5 9 80S13.5 90 19 90 29 85.5 29 80 24.5 70 19 70M19 86C15.7 86 13 83.3 13 80S15.7 74 19 74 25 76.7 25 80 22.3 86 19 86" fill="#39cccc" data-fill-palette-color="accent"></path><path d="M81 70C76.2 70 72.1 73.4 71.2 78H59.8C58.9 73.4 54.8 70 50 70 46.9 70 44.1 71.4 42.3 73.7L25.8 57.3C27.7 55.5 29 52.9 29 50 29 45.2 25.6 41.1 21 40.2V29.8C25.6 28.9 29 24.8 29 20 29 14.5 24.5 10 19 10S9 14.5 9 20C9 24.8 12.4 28.9 17 29.8V40.2C12.4 41.1 9 45.2 9 50 9 55.5 13.5 60 19 60 20.2 60 21.3 59.8 22.3 59.4L40.3 77.4C40.1 78.3 40 79.1 40 80 40 85.5 44.5 90 50 90 54.8 90 58.9 86.6 59.8 82H71.2C72.1 86.6 76.2 90 81 90 86.5 90 91 85.5 91 80S86.5 70 81 70M13 20C13 16.7 15.7 14 19 14S25 16.7 25 20 22.3 26 19 26 13 23.3 13 20M13 50C13 46.7 15.7 44 19 44S25 46.7 25 50 22.3 56 19 56 13 53.3 13 50M50 86C46.7 86 44 83.3 44 80S46.7 74 50 74 56 76.7 56 80 53.3 86 50 86M81 86C77.7 86 75 83.3 75 80S77.7 74 81 74 87 76.7 87 80 84.3 86 81 86" fill="#39cccc" data-fill-palette-color="accent"></path></g></svg></g></svg></g></svg></g><defs></defs></svg><rect width="395.52" height="84.87536552648686" fill="none" stroke="none" visibility="hidden"></rect></g></svg></g></svg>